<svg viewBox="0 0 60 60" xmlns="http://www.w3.org/2000/svg"><rect fill="transparent" height="60" rx="10" width="60" class="fill-ffffff"></rect><path d="M34.24 28.24 21.72 40.76l-5.21-8.16h.02a15.636 15.636 0 0 1-1.25-2.36v-.01l10.48-10.47A5.944 5.944 0 0 0 24 24a6 6 0 0 0 6 6 5.944 5.944 0 0 0 4.24-1.76Z" fill="#eff28d" class="fill-eff28d"></path><path d="M21.72 42.26a1.5 1.5 0 0 1-1.264-.693l-5.21-8.16a1.434 1.434 0 0 1-.111-.208 16.821 16.821 0 0 1-1.235-2.376 1.5 1.5 0 0 1-.118-.583 1.521 1.521 0 0 1 .44-1.071l10.442-10.435.04-.04a1.5 1.5 0 0 1 2.116 2.127l-.032.032A4.435 4.435 0 0 0 25.5 24a4.505 4.505 0 0 0 4.5 4.5 4.437 4.437 0 0 0 3.144-1.285l.036-.035a1.5 1.5 0 0 1 2.126 2.12l-.046.045L22.78 41.82a1.5 1.5 0 0 1-1.06.44ZM17.9 31.994l4.077 6.385 6.955-6.955a7.516 7.516 0 0 1-6.359-6.362l-5.5 5.491c.211.413.447.823.713 1.238a1.37 1.37 0 0 1 .114.203Z" fill="#f2bf80" class="fill-f2bf80"></path><path d="M25.76 19.76 15.28 30.23A15.6 15.6 0 0 1 14 24a15.987 15.987 0 0 1 4.68-11.32Z" fill="#ffafc5" class="fill-ffafc5"></path><path d="M15.28 31.73a1.56 1.56 0 0 1-.28-.03 1.5 1.5 0 0 1-1.1-.876A17.028 17.028 0 0 1 12.5 24a17.424 17.424 0 0 1 5.118-12.379 1.5 1.5 0 0 1 1.061-.441 1.5 1.5 0 0 1 1.061.44l7.08 7.08a1.5 1.5 0 0 1 0 2.122L16.34 31.291a1.5 1.5 0 0 1-1.06.439Zm3.456-16.873A14.429 14.429 0 0 0 15.5 24a14.277 14.277 0 0 0 .421 3.469l7.717-7.71Z" fill="#f28080" class="fill-f28080"></path><path d="M36.24 9.27 25.76 19.76l-7.08-7.08a16.009 16.009 0 0 1 17.56-3.41Z" fill="#bec6f4" class="fill-bec6f4"></path><path d="M25.76 21.26a1.5 1.5 0 0 1-1.061-.44l-7.079-7.079a1.5 1.5 0 0 1 0-2.123 17.506 17.506 0 0 1 19.209-3.727 1.5 1.5 0 0 1 .471 2.439L26.821 20.82a1.5 1.5 0 0 1-1.061.44Zm-4.9-8.524 4.9 4.9 7.712-7.719a14.548 14.548 0 0 0-12.614 2.817Z" fill="#8d9cf4" class="fill-8d9cf4"></path><path d="M34.24 28.24A5.944 5.944 0 0 0 36 24a6 6 0 0 0-6-6 5.944 5.944 0 0 0-4.24 1.76L36.24 9.27a15.961 15.961 0 0 1 8.49 8.49Z" fill="#bec6f4" class="fill-bec6f4"></path><path d="M34.24 29.74a1.5 1.5 0 0 1-1.06-2.561l.032-.032A4.435 4.435 0 0 0 34.5 24a4.505 4.505 0 0 0-4.5-4.5 4.435 4.435 0 0 0-3.147 1.288l-.032.032a1.5 1.5 0 0 1-2.127-2.12l.04-.04L35.179 8.21a1.5 1.5 0 0 1 1.644-.322 17.564 17.564 0 0 1 9.289 9.289 1.5 1.5 0 0 1-.322 1.644L35.336 29.266l-.04.04a1.5 1.5 0 0 1-1.056.434Zm-3.178-13.165a7.516 7.516 0 0 1 6.363 6.363l5.5-5.5a14.59 14.59 0 0 0-6.368-6.368Z" fill="#8d9cf4" class="fill-8d9cf4"></path><path d="M46 24a15.851 15.851 0 0 0-1.27-6.24l-23.01 23 6.59 10.32h.01a1.994 1.994 0 0 0 3.36 0h.01l11.8-18.48h-.02A15.806 15.806 0 0 0 46 24Z" fill="#c1f7fd" class="fill-c1f7fd"></path><path d="M30 53.5a3.472 3.472 0 0 1-2.837-1.454 1.55 1.55 0 0 1-.117-.159l-6.59-10.32a1.5 1.5 0 0 1 .2-1.868l23.01-23a1.5 1.5 0 0 1 2.44.472 17.414 17.414 0 0 1-1.247 16.035 1.4 1.4 0 0 1-.108.2l-11.8 18.48a1.378 1.378 0 0 1-.119.162A3.475 3.475 0 0 1 30 53.5Zm-.506-3.354c.032.042.063.084.091.128a.494.494 0 0 0 .83 0c.029-.045.06-.088.092-.129L42.1 31.991a1.432 1.432 0 0 1 .109-.2 14.44 14.44 0 0 0 1.872-11.258L23.633 40.968Z" fill="#7bcdd1" class="fill-7bcdd1"></path><path d="M43.468 34.1a1.5 1.5 0 0 1-1.259-2.313 14.417 14.417 0 0 0 1.142-13.438 1.5 1.5 0 1 1 2.758-1.178 17.411 17.411 0 0 1-1.379 16.242 1.5 1.5 0 0 1-1.262.687Z" fill="#bbd9c8" class="fill-bbd9c8"></path><path d="M31.688 52.58a1.5 1.5 0 0 1-1.262-2.307l11.7-18.324a1.487 1.487 0 0 1 1.344-.849 1.515 1.515 0 0 1 1.325.779 1.5 1.5 0 0 1-.041 1.528l-11.8 18.48a1.5 1.5 0 0 1-1.266.693Z" fill="#bbd9c8" class="fill-bbd9c8"></path></svg>